<svg width="44" height="44" viewBox="0 0 44 44" fill="none" xmlns="http://www.w3.org/2000/svg">
<path fill-rule="evenodd" clip-rule="evenodd" d="M1.05149 0.00673701C0.94473 -0.021588 0.83522 0.0419989 0.806895 0.148762C0.77857 0.255526 0.842156 0.365037 0.94892 0.393362C13.1101 3.6198 18.2001 12.2967 22.9503 20.8596C23.0839 21.1004 23.2173 21.3412 23.3505 21.5818L23.3507 21.5821L23.3508 21.5824L23.351 21.5826L23.3511 21.5829L23.3513 21.5832L23.3514 21.5834C24.2999 23.296 25.2428 24.9987 26.2348 26.644L25.7405 27.5427C24.6106 25.7265 23.526 23.8246 22.4328 21.8947L22.1879 21.4622C17.2526 12.7447 12.0437 3.54383 1.20974 1.22225C0.669712 1.10653 0.138125 1.45049 0.0224048 1.99052C-0.0933157 2.53054 0.250651 3.06213 0.790676 3.17785C6.15697 4.32778 10.0255 7.32307 13.2502 11.2498V23.8662C11.0402 23.1259 9.19238 22.3576 7.98589 21.2291C7.30103 20.5885 6.83097 19.8373 6.62235 18.9046C6.41215 17.9648 6.45923 16.8036 6.87379 15.336C6.94885 15.0702 6.79427 14.7939 6.52853 14.7189C6.26279 14.6438 5.98651 14.7984 5.91144 15.0641C5.46594 16.6413 5.39015 17.9769 5.64647 19.1229C5.90437 20.2759 6.4902 21.1994 7.30279 21.9594C8.73668 23.3006 10.9001 24.1478 13.2502 24.9202V34.7C13.2502 35.1143 13.586 35.45 14.0002 35.45C14.4144 35.45 14.7502 35.1143 14.7502 34.7V25.4006L15.0234 25.4868L15.0258 25.4876C15.2663 25.5634 15.5079 25.6396 15.7502 25.7165V35.2C15.7502 35.3381 15.8621 35.45 16.0002 35.45C16.1383 35.45 16.2502 35.3381 16.2502 35.2V25.8759C19.2708 26.845 22.3716 27.9616 24.8704 29.9094C28.9682 36.2 34.0411 41.6434 42.3173 43.1832C42.8603 43.2842 43.3823 42.9259 43.4833 42.383C43.5844 41.84 43.2261 41.3179 42.6831 41.2169C35.8001 39.9364 31.3208 35.7081 27.5703 30.3308C27.6402 30.2677 27.7006 30.1918 27.748 30.1042L28.0691 29.5101C31.5453 34.581 35.8827 38.7502 42.9549 40.3948C43.0625 40.4199 43.17 40.3529 43.195 40.2454C43.22 40.1378 43.1531 40.0303 43.0455 40.0052C36.0241 38.3724 31.7468 34.2149 28.2836 29.1133L36.0002 14.8376V35.2C36.0002 35.7523 36.4479 36.2 37.0002 36.2C37.5525 36.2 38.0002 35.7523 38.0002 35.2V9.20005C38.0002 8.64776 37.5525 8.20005 37.0002 8.20005C36.4989 8.20005 36.0838 8.56892 36.0114 9.05005H36.0002H35.9115L35.8688 9.12776L26.4584 26.2376C25.508 24.651 24.5977 23.0076 23.6782 21.3477L23.678 21.3474L23.6779 21.3472L23.6778 21.3471C23.5521 21.1202 23.4263 20.893 23.3001 20.6655C18.5503 12.1034 13.3903 3.2803 1.05149 0.00673701ZM36.0002 9.51131L26.6373 26.5348C26.832 26.8567 27.0285 27.176 27.2272 27.4926L36.0002 11.2625V9.51131ZM27.0084 27.8974L26.5294 28.7836C26.3254 28.4701 26.1233 28.1535 25.9227 27.8341L26.4143 26.9402C26.6102 27.2617 26.8081 27.5809 27.0084 27.8974ZM23.5622 27.826C22.5708 26.1939 21.6263 24.5288 20.6926 22.8804L20.6357 22.78C19.1916 20.2305 17.7711 17.7226 16.2502 15.389V24.8242C18.6627 25.5892 21.2422 26.4669 23.5622 27.826ZM15.7502 14.6339C15.4224 14.1469 15.0895 13.6685 14.7502 13.1997V24.3518C14.9593 24.4178 15.1704 24.4841 15.3833 24.551L15.3876 24.5524L15.3884 24.5526L15.3905 24.5533L15.3917 24.5537L15.7502 24.6663V14.6339Z" fill="url(#paint0_linear_104_85)"/>
<defs>
<linearGradient id="paint0_linear_104_85" x1="7" y1="-6.5" x2="41" y2="56.5" gradientUnits="userSpaceOnUse">
<stop stop-color="#41D2F2"/>
<stop offset="1" stop-color="#0367A6"/>
</linearGradient>
</defs>
</svg>
